<svg width="183" height="65" viewBox="0 0 183 65" fill="none" xmlns="http://www.w3.org/2000/svg">
<g clip-path="url(#clip0_44:27)">
<path d="M75.4883 26.4233C77.0966 28.0345 78 30.2179 78 32.4944C78 34.7709 77.0966 36.9544 75.4883 38.5655L63.5279 50.5291L51.5676 62.4927C49.958 64.0983 47.7773 65 45.5037 65C43.2302 65 41.0495 64.0983 39.4398 62.4927L15.5117 38.5655C13.9033 36.9544 13 34.7709 13 32.4944C13 30.2179 13.9033 28.0345 15.5117 26.4233L39.4398 2.511C41.0498 0.903128 43.2321 0 45.5074 0C47.7828 0 49.9651 0.903128 51.575 2.511L75.4883 26.4233Z" fill="#CCE1F6"/>
<path d="M90.2021 30.6825V17.287H99.8149V18.6828H91.7135V23.4669H98.9554V24.8459H91.7135V30.6825H90.2021Z" fill="#3385D9"/>
<path d="M102.141 18.6266V17H103.826V18.6266H102.141ZM102.236 30.6825V20.7879H103.708V30.6825H102.236Z" fill="#3385D9"/>
<path d="M106.748 30.6825V20.7878H108.22V22.5101C108.55 21.9089 109.04 21.4106 109.635 21.07C110.229 20.7294 110.906 20.5597 111.591 20.5796C112.103 20.5522 112.615 20.6345 113.092 20.8208C113.57 21.0071 114.002 21.2933 114.361 21.6602C115.063 22.4507 115.428 23.4852 115.378 24.542V30.6825H113.906V24.9022C113.948 24.114 113.693 23.3388 113.192 22.7296C112.935 22.4588 112.621 22.2475 112.274 22.1104C111.927 21.9734 111.554 21.9139 111.181 21.936C110.79 21.9238 110.4 21.9925 110.037 22.1378C109.673 22.283 109.344 22.5017 109.068 22.7803C108.785 23.0796 108.564 23.4334 108.42 23.8203C108.276 24.2072 108.212 24.6192 108.231 25.0316V30.6825H106.748Z" fill="#3385D9"/>
<path d="M119.012 26.3374C119.065 27.2534 119.467 28.1141 120.136 28.7407C120.773 29.3263 121.609 29.6446 122.473 29.63C123.062 29.6286 123.643 29.5036 124.18 29.2632C124.717 29.0228 125.198 28.6722 125.591 28.2341L126.507 29.0559C126.007 29.6458 125.383 30.1181 124.68 30.4391C123.977 30.7601 123.212 30.922 122.44 30.9132C121.79 30.9287 121.145 30.8097 120.543 30.5637C119.942 30.3177 119.398 29.95 118.945 29.4836C118.462 28.9923 118.085 28.4074 117.835 27.7648C117.586 27.1222 117.471 26.4354 117.496 25.7464C117.463 24.3956 117.95 23.0838 118.855 22.0823C119.273 21.6005 119.792 21.2163 120.374 20.9566C120.957 20.697 121.589 20.5683 122.226 20.5796C122.865 20.5506 123.501 20.6702 124.086 20.9289C124.671 21.1877 125.188 21.5786 125.597 22.0711C126.447 23.133 126.887 24.4652 126.839 25.8252C126.839 26.0166 126.839 26.1854 126.839 26.3374H119.012ZM119.012 25.1554H125.361C125.304 24.2794 124.972 23.444 124.412 22.769C124.139 22.4553 123.8 22.2073 123.418 22.0436C123.037 21.8798 122.624 21.8046 122.209 21.8234C121.804 21.8189 121.402 21.9004 121.03 22.0623C120.658 22.2243 120.325 22.4632 120.052 22.7634C119.442 23.4178 119.075 24.2623 119.012 25.1554Z" fill="#3385D9"/>
<path d="M94.6744 48.3218C92.5793 48.3572 90.5498 47.5902 89 46.1774L90.7417 44.0949C91.8376 45.0923 93.2508 45.6686 94.7306 45.7215C95.2257 45.7467 95.7176 45.6274 96.1464 45.3781C96.3062 45.2754 96.4375 45.1338 96.5279 44.9664C96.6183 44.7991 96.6648 44.6116 96.6633 44.4213C96.6609 44.2304 96.6076 44.0435 96.5088 43.8802C96.41 43.7169 96.2693 43.5831 96.1014 43.4926C95.4225 43.1332 94.6961 42.8717 93.944 42.7159C93.315 42.567 92.6958 42.379 92.09 42.1531C91.6146 41.9619 91.1638 41.7144 90.7473 41.4158C90.3327 41.1246 90.0077 40.7229 89.809 40.2563C89.5973 39.7193 89.4961 39.145 89.5113 38.5678C89.5011 38.0162 89.6156 37.4695 89.8462 36.9685C90.0768 36.4675 90.4175 36.0253 90.8428 35.6748C91.7935 34.9034 92.9911 34.5035 94.2137 34.5492C96.0156 34.5112 97.7736 35.1089 99.1802 36.2377L97.6521 38.489C96.6554 37.7064 95.4441 37.247 94.18 37.172C93.732 37.142 93.2865 37.2586 92.9103 37.5041C92.7688 37.6005 92.6536 37.7308 92.5751 37.8832C92.4966 38.0355 92.4574 38.2051 92.4608 38.3765C92.4536 38.5753 92.5025 38.7721 92.6019 38.9443C92.7013 39.1165 92.8471 39.2572 93.0227 39.3502C93.7676 39.7004 94.5498 39.9647 95.3542 40.1381C96.5186 40.3848 97.6141 40.8864 98.5622 41.6071C98.9155 41.9336 99.1916 42.3349 99.3705 42.7818C99.5493 43.2288 99.6264 43.71 99.596 44.1906C99.6242 44.77 99.517 45.348 99.2829 45.8786C99.0489 46.4091 98.6943 46.8776 98.2476 47.2467C97.219 48.0133 95.9544 48.3938 94.6744 48.3218Z" fill="#4F4F4F"/>
<path d="M101.765 48.1306V34.7351H111.877V37.3635H104.686V40.082H110.99V42.7049H104.686V45.519H111.945V48.1419L101.765 48.1306Z" fill="#4F4F4F"/>
<path d="M114.175 48.1306V34.7351H120.305C122.001 34.7351 123.301 35.1891 124.204 36.0972C124.591 36.5101 124.89 36.9974 125.083 37.5295C125.276 38.0616 125.359 38.6275 125.327 39.1928C125.385 40.107 125.134 41.0141 124.614 41.7678C124.095 42.5214 123.336 43.0776 122.462 43.3465L125.726 48.1306H122.288L119.389 43.8474H117.142V48.1306H114.175ZM117.119 41.2415H120.097C120.704 41.285 121.306 41.0982 121.782 40.7181C121.979 40.5416 122.134 40.3241 122.237 40.0809C122.339 39.8378 122.388 39.5749 122.378 39.311C122.394 39.0413 122.347 38.7717 122.241 38.5235C122.134 38.2753 121.972 38.0554 121.766 37.8814C121.273 37.5368 120.68 37.3665 120.08 37.3973H117.159L117.119 41.2415Z" fill="#4F4F4F"/>
<path d="M131.485 48.2261L126.08 34.718H129.327L132.822 44.1511L136.316 34.718H139.485L134.08 48.2261H131.485Z" fill="#4F4F4F"/>
<path d="M141.306 48.1306V34.7351H144.244V48.1306H141.306Z" fill="#4F4F4F"/>
<path d="M153.452 48.3611C152.545 48.3845 151.643 48.2196 150.803 47.8767C149.963 47.5338 149.202 47.0203 148.57 46.3686C147.311 45.0394 146.608 43.2765 146.608 41.4438C146.608 39.6111 147.311 37.8483 148.57 36.519C149.613 35.5409 150.916 34.8848 152.322 34.6293C153.728 34.3737 155.177 34.5296 156.497 35.0782C157.331 35.488 158.09 36.0339 158.745 36.6935L156.986 38.7197C156.506 38.2676 155.963 37.8883 155.374 37.594C154.798 37.3434 154.175 37.2223 153.548 37.2394C153.025 37.2265 152.505 37.3286 152.025 37.5386C151.546 37.7487 151.118 38.0615 150.772 38.4552C150.062 39.2894 149.672 40.3501 149.672 41.4466C149.672 42.5432 150.062 43.6038 150.772 44.4381C151.117 44.8334 151.544 45.1477 152.024 45.3588C152.504 45.5699 153.024 45.6725 153.548 45.6595C154.187 45.677 154.822 45.546 155.402 45.2767C156.019 44.9659 156.587 44.5658 157.087 44.0892L158.958 46.0985C158.301 46.832 157.497 47.4187 156.598 47.8208C155.598 48.2166 154.527 48.4006 153.452 48.3611Z" fill="#4F4F4F"/>
<path d="M160.919 48.1306V34.7351H171.032V37.3635H163.84V40.082H170.144V42.7049H163.84V45.519H171.099V48.1419L160.919 48.1306Z" fill="#4F4F4F"/>
<path d="M178.094 48.3218C175.999 48.3583 173.969 47.5912 172.419 46.1774L174.155 44.0949C175.26 45.0968 176.683 45.6732 178.173 45.7215C178.668 45.746 179.159 45.6268 179.588 45.3781C179.749 45.2771 179.881 45.1357 179.971 44.9679C180.061 44.8 180.105 44.6116 180.1 44.4213C180.101 44.2331 180.052 44.0479 179.958 43.8847C179.864 43.7216 179.729 43.5863 179.566 43.4926C178.887 43.1332 178.161 42.8717 177.408 42.7159C176.779 42.567 176.16 42.379 175.554 42.1531C175.078 41.9644 174.627 41.7167 174.212 41.4158C173.797 41.1246 173.472 40.7229 173.273 40.2563C173.062 39.7193 172.96 39.145 172.976 38.5678C172.957 38.0216 173.061 37.4783 173.28 36.9777C173.499 36.477 173.827 36.0319 174.24 35.6748C175.19 34.9034 176.388 34.5035 177.611 34.5492C179.413 34.5112 181.171 35.1089 182.577 36.2377L181.072 38.489C180.081 37.7005 178.873 37.2332 177.611 37.1495C177.163 37.1211 176.718 37.2375 176.341 37.4816C176.198 37.5936 176.085 37.7387 176.01 37.9043C175.935 38.0699 175.902 38.2512 175.912 38.4326C175.923 38.614 175.977 38.7901 176.07 38.946C176.163 39.1019 176.293 39.2328 176.448 39.3277C177.193 39.6779 177.975 39.9422 178.779 40.1156C179.944 40.3622 181.039 40.8639 181.987 41.5846C182.339 41.9121 182.615 42.3135 182.793 42.7602C182.972 43.2069 183.05 43.6877 183.021 44.168C183.049 44.7475 182.942 45.3255 182.708 45.8561C182.474 46.3866 182.119 46.8551 181.673 47.2242C180.646 48.0001 179.378 48.3887 178.094 48.3218Z" fill="#4F4F4F"/>
<path d="M63.5 32.4944C63.5 30.6158 62.7547 28.8138 61.4276 27.484L63.5 32.4944ZM63.5 32.4944C63.5 34.3732 62.7546 36.1752 61.4275 37.505L63.5 32.4944ZM37.515 3.57233L61.4267 27.4831V37.5057L49.4671 49.4686L37.5083 61.4307C37.5078 61.4312 37.5073 61.4317 37.5069 61.4321C36.1786 62.7563 34.3794 63.5 32.5037 63.5C30.6277 63.5 28.8282 62.7561 27.4999 61.4314C27.4997 61.4312 27.4994 61.431 27.4992 61.4307L3.5733 37.5057C3.5732 37.5056 3.57311 37.5056 3.57301 37.5055C2.24555 36.1756 1.5 34.3734 1.5 32.4944C1.5 30.6156 2.24546 28.8135 3.57277 27.4836C3.57294 27.4834 3.57312 27.4833 3.5733 27.4831L27.4998 3.57233C27.4999 3.57223 27.5001 3.57212 27.5002 3.57201C28.8288 2.24524 30.6297 1.5 32.5074 1.5C34.3853 1.5 36.1864 2.24536 37.515 3.57233Z" fill="#3385D9" stroke="#FAFAFA" stroke-width="3"/>
<path d="M19.6665 40.8353V24.9458H31.0957V26.6015H21.4525V32.2763H30.0427V33.912H21.4525V40.8353H19.6665Z" fill="#086CD1"/>
<path d="M39.9659 41.0623C37.561 41.0714 35.2435 40.159 33.4883 38.5119L34.5945 37.1767C35.3458 37.8813 36.2082 38.4565 37.1469 38.8791C38.0626 39.2525 39.0441 39.4364 40.0326 39.4199C40.949 39.4635 41.8533 39.1953 42.5983 38.6588C42.9098 38.4284 43.1609 38.1259 43.3304 37.7771C43.4998 37.4283 43.5825 37.0437 43.5713 36.6559C43.5847 36.3024 43.5136 35.9508 43.3641 35.6303C43.2146 35.3099 42.9909 35.0297 42.7116 34.8133C41.7151 34.2013 40.6036 33.8013 39.4461 33.6383C37.9771 33.4055 36.5815 32.8366 35.3676 31.9759C34.9465 31.6095 34.6151 31.151 34.399 30.6359C34.1829 30.1207 34.0879 29.5627 34.1214 29.0049C34.1117 28.4079 34.2396 27.8166 34.495 27.277C34.7504 26.7375 35.1266 26.2641 35.5942 25.8938C36.6545 25.0518 37.9809 24.6184 39.3328 24.6721C41.3604 24.6487 43.332 25.3385 44.9041 26.6215L43.8645 28.0035C42.5903 26.9041 40.9678 26.2937 39.2862 26.281C38.41 26.2383 37.546 26.5 36.8404 27.0221C36.5484 27.2371 36.312 27.519 36.1508 27.8442C35.9897 28.1694 35.9085 28.5284 35.9141 28.8914C35.8996 29.2514 35.9734 29.6094 36.1291 29.9342C36.2848 30.2589 36.5176 30.5404 36.8071 30.7541C37.8538 31.3808 39.013 31.7959 40.2192 31.9759C41.6391 32.2076 42.9842 32.7727 44.1444 33.6249C44.5564 33.9809 44.8822 34.4263 45.0969 34.9271C45.3117 35.428 45.4098 35.9712 45.3839 36.5157C45.4133 37.1521 45.2908 37.7862 45.0266 38.3656C44.7623 38.945 44.3639 39.4529 43.8645 39.8472C42.7468 40.6965 41.3673 41.1264 39.9659 41.0623Z" fill="#086CD1"/>
<path d="M19 40.1676V24.2781H30.4292V25.9338H20.786V31.6086H29.3762V33.2443H20.786V40.1676H19Z" fill="white"/>
<path d="M39.2994 40.3947C36.8945 40.4038 34.577 39.4914 32.8218 37.8443L33.928 36.5091C34.6793 37.2137 35.5417 37.7889 36.4804 38.2115C37.3961 38.5849 38.3776 38.7688 39.3661 38.7523C40.2825 38.7959 41.1868 38.5277 41.9318 37.9912C42.2433 37.7608 42.4944 37.4583 42.6639 37.1095C42.8333 36.7607 42.916 36.376 42.9048 35.9883C42.9182 35.6348 42.8471 35.2832 42.6976 34.9627C42.5481 34.6423 42.3244 34.3621 42.0451 34.1457C41.0486 33.5337 39.937 33.1337 38.7796 32.9707C37.3106 32.7379 35.915 32.169 34.7011 31.3083C34.28 30.9419 33.9486 30.4834 33.7325 29.9683C33.5164 29.4531 33.4214 28.8951 33.4549 28.3373C33.4452 27.7403 33.5731 27.149 33.8285 26.6094C34.0839 26.0699 34.4601 25.5965 34.9277 25.2262C35.988 24.3842 37.3144 23.9508 38.6663 24.0044C40.6939 23.9811 42.6655 24.6709 44.2376 25.9539L43.198 27.3359C41.9238 26.2365 40.3013 25.6261 38.6197 25.6134C37.7435 25.5707 36.8795 25.8324 36.1739 26.3545C35.8819 26.5695 35.6454 26.8514 35.4843 27.1766C35.3232 27.5018 35.242 27.8608 35.2476 28.2238C35.2331 28.5838 35.3069 28.9418 35.4626 29.2666C35.6182 29.5913 35.851 29.8728 36.1406 30.0865C37.1873 30.7132 38.3465 31.1283 39.5527 31.3083C40.9726 31.54 42.3177 32.1051 43.4779 32.9573C43.8899 33.3133 44.2157 33.7587 44.4304 34.2595C44.6452 34.7604 44.7433 35.3036 44.7174 35.8481C44.7468 36.4844 44.6243 37.1186 44.3601 37.698C44.0958 38.2774 43.6974 38.7853 43.198 39.1796C42.0803 40.0289 40.7008 40.4588 39.2994 40.3947Z" fill="white"/>
</g>
<defs>
<clipPath id="clip0_44:27">
<rect width="183" height="65" fill="white"/>
</clipPath>
</defs>
</svg>
